<svg id="Layer_1" data-name="Layer 1" xmlns="http://www.w3.org/2000/svg" xmlns:xlink="http://www.w3.org/1999/xlink" viewBox="0 0 102.92 193.97"><defs><style>.cls-1{fill:none;}.cls-2{clip-path:url(#clip-path);}.cls-3{fill:red;}.cls-4{stroke:#000;stroke-miterlimit:10;}.cls-5{fill:#787878;}</style><clipPath id="clip-path" transform="translate(-4.57 -2.95)"><polyline class="cls-1" points="-5.82 228.47 124.15 227.77 125.71 113.78 -7.53 163.04"/></clipPath></defs><title>thqm3</title><g id="phone"><g class="cls-2"><path d="M90.29,40.45H21.84A14.67,14.67,0,0,0,7.17,55.12V182.25a14.67,14.67,0,0,0,14.67,14.67H90.29A14.67,14.67,0,0,0,105,182.25V55.12A14.67,14.67,0,0,0,90.29,40.45ZM56.07,187.14a9.78,9.78,0,1,1,9.78-9.78A9.77,9.77,0,0,1,56.07,187.14Z" transform="translate(-4.57 -2.95)"/></g></g><g id="wifi"><path d="M106.69,22.71C78.24-3.7,33.84-3.59,5.39,22.71a2.57,2.57,0,0,0-.11,3.66l5.5,5.5a2.64,2.64,0,0,0,3.55.11,61.6,61.6,0,0,1,83.2,0,2.44,2.44,0,0,0,3.56-.11l5.49-5.5a2.39,2.39,0,0,0,.11-3.66ZM56,54.39A10.35,10.35,0,1,0,66.39,64.74,10.36,10.36,0,0,0,56,54.39ZM88.59,41a49.4,49.4,0,0,0-65.2,0,2.6,2.6,0,0,0-.11,3.77l5.49,5.5a2.64,2.64,0,0,0,3.56.1,36.29,36.29,0,0,1,47.2,0,2.64,2.64,0,0,0,3.56-.1l5.5-5.5A2.45,2.45,0,0,0,88.59,41Z" transform="translate(-4.57 -2.95)"/><circle class="cls-3" cx="51.5" cy="61.79" r="10.35"/></g><g id="remote"><path class="cls-4" d="M76.69,155.18H35.44c-3.55,0-6.42-2-6.42-4.36V71.24c0-2.41,2.87-4.36,6.42-4.36H76.69c3.55,0,6.42,2,6.42,4.36v79.58C83.11,153.23,80.24,155.18,76.69,155.18Z" transform="translate(-4.57 -2.95)"/><circle class="cls-5" cx="36.22" cy="98.04" r="6.48"/><circle class="cls-5" cx="51.5" cy="98.04" r="6.48"/><circle class="cls-5" cx="66.78" cy="98.04" r="6.48"/><circle class="cls-5" cx="36.22" cy="113.32" r="6.48"/><circle class="cls-5" cx="51.5" cy="113.32" r="6.48"/><circle class="cls-5" cx="66.78" cy="113.32" r="6.48"/></g></svg>